<svg width="60" height="60" viewBox="0 0 60 60" fill="none" xmlns="http://www.w3.org/2000/svg">
<circle cx="30" cy="30" r="30" fill="#F96324"/>
<g clip-path="url(#clip0_1099_1343)">
<path fill-rule="evenodd" clip-rule="evenodd" d="M28.4294 37.9609L36.6682 44.4147C36.8031 44.5179 36.8857 44.5702 36.9659 44.5702C37.1944 44.5702 37.2624 44.4159 37.2624 44.1595V38.0557C37.2624 37.6243 37.5456 37.2816 37.9283 37.2816L40.9237 37.2792C43.6202 37.2792 44.5692 35.9498 44.5692 34.8489V17.8366C44.5692 16.6214 43.6603 15.4062 40.9067 15.4062H19.0374C16.3798 15.4062 15.4053 16.5837 15.4053 17.8366V34.8489C15.4053 36.0264 16.4114 37.2792 19.0508 37.2792H26.3418C26.3418 37.2792 27.8668 37.3217 28.4294 37.9609Z" fill="white"/>
<path d="M23.4213 28.6363C24.5093 28.6363 25.3914 27.7593 25.3914 26.6775C25.3914 25.5957 24.5093 24.7188 23.4213 24.7188C22.3332 24.7188 21.4512 25.5957 21.4512 26.6775C21.4512 27.7593 22.3332 28.6363 23.4213 28.6363Z" fill="#F96324"/>
<path d="M30.0482 28.6363C31.1363 28.6363 32.0183 27.7593 32.0183 26.6775C32.0183 25.5957 31.1363 24.7188 30.0482 24.7188C28.9602 24.7188 28.0781 25.5957 28.0781 26.6775C28.0781 27.7593 28.9602 28.6363 30.0482 28.6363Z" fill="#F96324"/>
<path d="M36.6752 28.6363C37.7632 28.6363 38.6453 27.7593 38.6453 26.6775C38.6453 25.5957 37.7632 24.7188 36.6752 24.7188C35.5871 24.7188 34.7051 25.5957 34.7051 26.6775C34.7051 27.7593 35.5871 28.6363 36.6752 28.6363Z" fill="#F96324"/>
</g>
<defs>
<clipPath id="clip0_1099_1343">
<rect width="29.1892" height="29.1892" fill="white" transform="translate(15.4053 15.4062)"/>
</clipPath>
</defs>
</svg>
