<svg width="18" height="18" viewBox="0 0 18 18" fill="none" xmlns="http://www.w3.org/2000/svg">
<g id="Page-1">
<g id="Shape">
<path id="Vector" fill-rule="evenodd" clip-rule="evenodd" d="M7.59741 14.1256L12.4034 17.8903C12.4821 17.9506 12.5303 17.981 12.5771 17.981C12.7103 17.981 12.75 17.891 12.75 17.7415V14.1809C12.75 13.9293 12.9152 13.7294 13.1385 13.7294L14.8858 13.728C16.4587 13.728 17.0123 12.9525 17.0123 12.3103V2.38644C17.0123 1.6776 16.4821 0.96875 14.8758 0.96875H2.11874C0.568494 0.96875 0 1.65562 0 2.38644V12.3103C0 12.9972 0.586924 13.728 2.12654 13.728H6.37961C6.37961 13.728 7.26921 13.7528 7.59741 14.1256Z" fill="white"/>
<path id="Oval-1" d="M4.67657 8.68562C5.31128 8.68562 5.8258 8.17406 5.8258 7.54301C5.8258 6.91196 5.31128 6.40039 4.67657 6.40039C4.04187 6.40039 3.52734 6.91196 3.52734 7.54301C3.52734 8.17406 4.04187 8.68562 4.67657 8.68562Z" fill="#F96324"/>
<path id="Oval-1_2" d="M8.54181 8.68562C9.17651 8.68562 9.69104 8.17406 9.69104 7.54301C9.69104 6.91196 9.17651 6.40039 8.54181 6.40039C7.90711 6.40039 7.39258 6.91196 7.39258 7.54301C7.39258 8.17406 7.90711 8.68562 8.54181 8.68562Z" fill="#F96324"/>
<path id="Oval-1_3" d="M12.407 8.68562C13.0417 8.68562 13.5563 8.17406 13.5563 7.54301C13.5563 6.91196 13.0417 6.40039 12.407 6.40039C11.7723 6.40039 11.2578 6.91196 11.2578 7.54301C11.2578 8.17406 11.7723 8.68562 12.407 8.68562Z" fill="#F96324"/>
</g>
</g>
</svg>
